<svg id="PCHC_Logo" xmlns="http://www.w3.org/2000/svg" viewBox="0 0 1038 480"><style>.st0{fill:url(#Swoosh_2_)}.st1{fill:url(#P_1_)}.st2{fill:url(#C_2_)}.st3{fill:url(#H_1_)}.st4{fill:url(#C_3_)}</style><g id="Swoosh"><linearGradient id="Swoosh_2_" gradientUnits="userSpaceOnUse" x1="519.002" y1="480" x2="519.002"><stop offset="0" stop-color="#6d4b39"/><stop offset="1" stop-color="#8c7167"/></linearGradient><path id="Swoosh_1_" class="st0" d="M519 0C232.8 0 0 123.8 0 276c0 76.2 62.8 150.2 172.4 203.5l.1-.1C79.7 430.7 51.7 352 51.7 282.6 51.7 146 252.6 43 519 43s467.3 103 467.3 239.6c0 69.3-29.4 148.3-122.3 197 .2.2.4.3.6.5C974.8 426.6 1038 352.4 1038 276 1038 123.8 805.2 0 519 0z"/></g><g id="Letters"><linearGradient id="P_1_" gradientUnits="userSpaceOnUse" x1="212.375" y1="372.717" x2="212.375" y2="177.074"><stop offset="0" stop-color="#212058"/><stop offset=".087" stop-color="#242461"/><stop offset=".323" stop-color="#2a2c75"/><stop offset=".563" stop-color="#2e3180"/><stop offset=".812" stop-color="#2f3384"/><stop offset="1" stop-color="#2f3384"/></linearGradient><path id="P" class="st1" d="M190.9 233.9c.1-13.2.2-26.6.4-40.3.7-.2 1.6-.3 2.6-.3h9.4c4 0 7.8.7 11.5 2s6.9 3.5 9.7 6.4c2.8 2.9 4.9 6.9 6.5 11.8 1.6 4.9 2.4 11 2.4 18.2 0 9.1-1.3 16.4-4 21.9s-6.1 9.7-10.2 12.7c-4.2 2.9-8.8 4.9-13.8 5.8-5 .9-9.9 1.4-14.7 1.4 0-13.2.1-26.4.2-39.6m-.6-56.1c-7.1.5-14 .7-20.6.7-4.8 0-9-.1-12.8-.4s-7.3-.6-10.5-1c.8 12.3 1.3 24.6 1.7 36.9.4 12.3.6 26.3.6 42v38.7c0 15.8-.2 29.8-.6 42-.4 12.2-.9 24.3-1.7 36 3.2-.4 6.7-.6 10.5-.6h25.6c3.8 0 7.3.2 10.5.6-1-13.9-1.6-27.9-1.9-42-.3-14.1-.4-28.3-.4-42.6h14.5c10.6 0 20.4-1.1 29.3-3.4 8.9-2.3 16.7-5.8 23.2-10.7 6.5-4.8 11.6-11.1 15.2-18.9 3.6-7.8 5.4-17.1 5.4-27.9 0-8.5-1.4-15.9-4.3-21.9-2.8-6.1-7.3-11.6-13.4-16.5-4.4-3.8-10.4-6.7-17.9-8.7-7.6-2-18.1-3-31.6-3-6.7 0-13.7.2-20.8.7"/><linearGradient id="C_2_" gradientUnits="userSpaceOnUse" x1="386.792" y1="376.416" x2="386.792" y2="173.37"><stop offset="0" stop-color="#212058"/><stop offset=".087" stop-color="#242461"/><stop offset=".323" stop-color="#2a2c75"/><stop offset=".563" stop-color="#2e3180"/><stop offset=".812" stop-color="#2f3384"/><stop offset="1" stop-color="#2f3384"/></linearGradient><path id="C" class="st2" d="M371.3 179.4c-13.7 4-25.7 10.3-36 18.9-10.4 8.6-18.6 19.8-24.8 33.6-6.2 13.8-9.3 30.5-9.3 50.3 0 13.5 2.4 26 7.1 37.6 4.7 11.6 11.6 21.6 20.6 30 9 8.4 20 15 33 19.6 13 4.7 27.8 7 44.3 7 23.3 0 42.7-3.9 58.1-11.7.4-4 1.1-8 2.3-12.1 1.1-4.1 2.5-8.1 4-12.1l-3.7-2.3c-3 3.2-6.6 6.2-10.7 8.8-4.1 2.7-8.4 4.9-12.9 6.7-4.6 1.8-9.2 3.2-14 4.3-4.8 1.1-9.4 1.6-14 1.6-8.2 0-16.3-1.5-24.3-4.6s-15.3-7.8-21.6-14.4c-6.4-6.6-11.5-15-15.5-25.4-4-10.4-6-22.8-6-37.5 0-15.2 1.9-28.2 5.8-39.2 3.9-10.9 9-19.9 15.2-26.9 6.3-7 13.2-12.3 20.9-15.7 7.7-3.4 15.3-5.1 22.9-5.1 10.2 0 19.2 2 26.8 5.8 7.6 3.9 15 10.4 22.2 19.5h4c.4-4.9 1.1-9.8 2.1-14.7 1-4.8 2.5-9.6 4.4-14.4-3.2-1.9-7.2-3.7-11.8-5.4-4.7-1.7-9.6-3.2-14.7-4.4-5.1-1.2-10.4-2.2-15.9-3-5.5-.8-10.7-1.1-15.7-1.1-14.8.3-29.2 2.3-42.8 6.3"/><linearGradient id="H_1_" gradientUnits="userSpaceOnUse" x1="599.086" y1="372.717" x2="599.086" y2="177.074"><stop offset="0" stop-color="#212058"/><stop offset=".087" stop-color="#242461"/><stop offset=".323" stop-color="#2a2c75"/><stop offset=".563" stop-color="#2e3180"/><stop offset=".812" stop-color="#2f3384"/><stop offset="1" stop-color="#2f3384"/></linearGradient><path id="H" class="st3" d="M676.3 178.1c-3.8.3-8.1.4-12.8.4-4.8 0-9-.1-12.8-.4-3.8-.3-7.3-.6-10.5-1 .8 12.3 1.3 24.5 1.7 36.6.4 12.1.6 26 .6 41.7-5.5.2-11.5.3-17.9.4-6.5.1-14.8.1-25.1.1-10.2 0-18.8 0-25.8-.1-6.9-.1-12.9-.2-17.8-.4 0-15.8.1-29.7.4-41.7.3-12.1.9-24.3 1.9-36.6-3.2.4-6.7.7-10.5 1-3.8.3-8.1.4-12.8.4-4.8 0-9-.1-12.8-.4-3.8-.3-7.3-.6-10.5-1 .8 12.3 1.3 24.6 1.7 36.9.4 12.3.6 26.3.6 42v38.7c0 15.8-.2 29.8-.6 42-.4 12.2-1 24.3-1.7 36 3.2-.4 6.7-.6 10.5-.6h25.6c3.8 0 7.3.2 10.5.6-.8-11.8-1.3-23.8-1.7-36-.4-12.2-.6-26.2-.6-42v-16.2a779.663 779.663 0 0 1 43.2-1.2c7.2 0 14.4.1 21.7.4 7.2.3 14.4.5 21.6.7v16.2c0 15.8-.2 29.8-.6 42-.4 12.2-.9 24.3-1.7 36 3.2-.4 6.7-.6 10.5-.6h25.6c3.8 0 7.3.2 10.5.6-.8-11.8-1.3-23.8-1.7-36-.4-12.2-.6-26.2-.6-42V256c0-15.7.2-29.8.6-42 .4-12.2.9-24.5 1.7-36.9-3.1.4-6.6.7-10.4 1"/><linearGradient id="C_3_" gradientUnits="userSpaceOnUse" x1="812.53" y1="376.416" x2="812.53" y2="173.37"><stop offset="0" stop-color="#212058"/><stop offset=".087" stop-color="#242461"/><stop offset=".323" stop-color="#2a2c75"/><stop offset=".563" stop-color="#2e3180"/><stop offset=".812" stop-color="#2f3384"/><stop offset="1" stop-color="#2f3384"/></linearGradient><path id="C_1_" class="st4" d="M797 179.4c-13.7 4-25.7 10.3-36 18.9-10.4 8.6-18.6 19.8-24.8 33.6-6.2 13.8-9.3 30.5-9.3 50.3 0 13.5 2.4 26 7.1 37.6 4.8 11.6 11.6 21.6 20.6 30 9 8.4 20 15 33 19.6 13 4.7 27.8 7 44.3 7 23.4 0 42.7-3.9 58.1-11.7.4-4 1.1-8 2.3-12.1 1.1-4.1 2.5-8.1 4-12.1l-3.7-2.3c-3 3.2-6.6 6.2-10.7 8.8-4.1 2.7-8.4 4.9-13 6.7-4.6 1.8-9.2 3.2-14 4.3-4.8 1.1-9.4 1.6-14 1.6-8.2 0-16.3-1.5-24.3-4.6-8.1-3-15.3-7.8-21.7-14.4-6.4-6.6-11.5-15-15.5-25.4-4-10.4-6-22.8-6-37.5 0-15.2 1.9-28.2 5.8-39.2 3.9-10.9 9-19.9 15.2-26.9 6.3-7 13.2-12.3 20.9-15.7 7.7-3.4 15.3-5.1 22.9-5.1 10.2 0 19.2 2 26.8 5.8 7.6 3.9 15 10.4 22.2 19.5h4c.4-4.9 1.1-9.8 2.1-14.7 1-4.8 2.5-9.6 4.4-14.4-3.2-1.9-7.2-3.7-11.8-5.4-4.7-1.7-9.5-3.2-14.7-4.4-5.1-1.2-10.4-2.2-15.9-3-5.5-.8-10.7-1.1-15.7-1.1-14.6.3-28.9 2.3-42.6 6.3"/></g></svg>