<?xml version="1.0" encoding="utf-8"?>
<!-- Generator: Adobe Illustrator 21.1.0, SVG Export Plug-In . SVG Version: 6.00 Build 0)  -->
<svg version="1.1" id="PCHC_Logo" xmlns="http://www.w3.org/2000/svg" xmlns:xlink="http://www.w3.org/1999/xlink" x="0px" y="0px"
	 viewBox="0 0 1038 480" style="enable-background:new 0 0 1038 480;" xml:space="preserve">
<style type="text/css">
	.st0{fill:url(#Swoosh_2_);}
	.st1{fill:url(#P_1_);}
	.st2{fill:url(#C_2_);}
	.st3{fill:url(#H_1_);}
	.st4{fill:url(#C_3_);}
</style>
<g id="Swoosh">
	<linearGradient id="Swoosh_2_" gradientUnits="userSpaceOnUse" x1="519.0021" y1="480" x2="519.0021" y2="-9.094947e-13">
		<stop  offset="0" style="stop-color:#6D4B39"/>
		<stop  offset="1" style="stop-color:#8C7167"/>
	</linearGradient>
	<path id="Swoosh_1_" class="st0" d="M519,0C232.8,0,0,123.8,0,276c0,76.2,62.8,150.2,172.4,203.5c0,0,0,0,0.1-0.1
		C79.7,430.7,51.7,352,51.7,282.6C51.7,146,252.6,43,519,43c266.4,0,467.3,103,467.3,239.6c0,69.3-29.4,148.3-122.3,197
		c0.2,0.2,0.4,0.3,0.6,0.5C974.8,426.6,1038,352.4,1038,276C1038,123.8,805.2,0,519,0z"/>
</g>
<g id="Letters">
	<linearGradient id="P_1_" gradientUnits="userSpaceOnUse" x1="212.3755" y1="372.7168" x2="212.3755" y2="177.0744">
		<stop  offset="0" style="stop-color:#212058"/>
		<stop  offset="8.711652e-02" style="stop-color:#242461"/>
		<stop  offset="0.3231" style="stop-color:#2A2C75"/>
		<stop  offset="0.5632" style="stop-color:#2E3180"/>
		<stop  offset="0.8118" style="stop-color:#2F3384"/>
		<stop  offset="1" style="stop-color:#2F3384"/>
	</linearGradient>
	<path id="P" class="st1" d="M190.9,233.9c0.1-13.2,0.2-26.6,0.4-40.3c0.7-0.2,1.6-0.3,2.6-0.3h2.9h6.5c4,0,7.8,0.7,11.5,2
		c3.7,1.3,6.9,3.5,9.7,6.4c2.8,2.9,4.9,6.9,6.5,11.8c1.6,4.9,2.4,11,2.4,18.2c0,9.1-1.3,16.4-4,21.9c-2.7,5.5-6.1,9.7-10.2,12.7
		c-4.2,2.9-8.8,4.9-13.8,5.8c-5,0.9-9.9,1.4-14.7,1.4C190.7,260.3,190.8,247.1,190.9,233.9 M190.3,177.8c-7.1,0.5-14,0.7-20.6,0.7
		c-4.8,0-9-0.1-12.8-0.4s-7.3-0.6-10.5-1c0.8,12.3,1.3,24.6,1.7,36.9c0.4,12.3,0.6,26.3,0.6,42v38.7c0,15.8-0.2,29.8-0.6,42
		c-0.4,12.2-0.9,24.3-1.7,36c3.2-0.4,6.7-0.6,10.5-0.6h12.8h12.8c3.8,0,7.3,0.2,10.5,0.6c-1-13.9-1.6-27.9-1.9-42
		c-0.3-14.1-0.4-28.3-0.4-42.6h14.5c10.6,0,20.4-1.1,29.3-3.4c8.9-2.3,16.7-5.8,23.2-10.7c6.5-4.8,11.6-11.1,15.2-18.9
		c3.6-7.8,5.4-17.1,5.4-27.9c0-8.5-1.4-15.9-4.3-21.9c-2.8-6.1-7.3-11.6-13.4-16.5c-4.4-3.8-10.4-6.7-17.9-8.7c-7.6-2-18.1-3-31.6-3
		C204.4,177.1,197.4,177.3,190.3,177.8"/>
	<linearGradient id="C_2_" gradientUnits="userSpaceOnUse" x1="386.7916" y1="376.4162" x2="386.7916" y2="173.3699">
		<stop  offset="0" style="stop-color:#212058"/>
		<stop  offset="8.711652e-02" style="stop-color:#242461"/>
		<stop  offset="0.3231" style="stop-color:#2A2C75"/>
		<stop  offset="0.5632" style="stop-color:#2E3180"/>
		<stop  offset="0.8118" style="stop-color:#2F3384"/>
		<stop  offset="1" style="stop-color:#2F3384"/>
	</linearGradient>
	<path id="C" class="st2" d="M371.3,179.4c-13.7,4-25.7,10.3-36,18.9c-10.4,8.6-18.6,19.8-24.8,33.6c-6.2,13.8-9.3,30.5-9.3,50.3
		c0,13.5,2.4,26,7.1,37.6c4.7,11.6,11.6,21.6,20.6,30c9,8.4,20,15,33,19.6c13,4.7,27.8,7,44.3,7c23.3,0,42.7-3.9,58.1-11.7
		c0.4-4,1.1-8,2.3-12.1c1.1-4.1,2.5-8.1,4-12.1l-3.7-2.3c-3,3.2-6.6,6.2-10.7,8.8c-4.1,2.7-8.4,4.9-12.9,6.7
		c-4.6,1.8-9.2,3.2-14,4.3c-4.8,1.1-9.4,1.6-14,1.6c-8.2,0-16.3-1.5-24.3-4.6s-15.3-7.8-21.6-14.4c-6.4-6.6-11.5-15-15.5-25.4
		c-4-10.4-6-22.8-6-37.5c0-15.2,1.9-28.2,5.8-39.2c3.9-10.9,9-19.9,15.2-26.9c6.3-7,13.2-12.3,20.9-15.7c7.7-3.4,15.3-5.1,22.9-5.1
		c10.2,0,19.2,2,26.8,5.8c7.6,3.9,15,10.4,22.2,19.5h4c0.4-4.9,1.1-9.8,2.1-14.7c1-4.8,2.5-9.6,4.4-14.4c-3.2-1.9-7.2-3.7-11.8-5.4
		c-4.7-1.7-9.6-3.2-14.7-4.4c-5.1-1.2-10.4-2.2-15.9-3c-5.5-0.8-10.7-1.1-15.7-1.1C399.3,173.4,384.9,175.4,371.3,179.4"/>
	<linearGradient id="H_1_" gradientUnits="userSpaceOnUse" x1="599.0855" y1="372.7168" x2="599.0855" y2="177.0744">
		<stop  offset="0" style="stop-color:#212058"/>
		<stop  offset="8.711652e-02" style="stop-color:#242461"/>
		<stop  offset="0.3231" style="stop-color:#2A2C75"/>
		<stop  offset="0.5632" style="stop-color:#2E3180"/>
		<stop  offset="0.8118" style="stop-color:#2F3384"/>
		<stop  offset="1" style="stop-color:#2F3384"/>
	</linearGradient>
	<path id="H" class="st3" d="M676.3,178.1c-3.8,0.3-8.1,0.4-12.8,0.4c-4.8,0-9-0.1-12.8-0.4c-3.8-0.3-7.3-0.6-10.5-1
		c0.8,12.3,1.3,24.5,1.7,36.6c0.4,12.1,0.6,26,0.6,41.7c-5.5,0.2-11.5,0.3-17.9,0.4c-6.5,0.1-14.8,0.1-25.1,0.1
		c-10.2,0-18.8,0-25.8-0.1c-6.9-0.1-12.9-0.2-17.8-0.4c0-15.8,0.1-29.7,0.4-41.7c0.3-12.1,0.9-24.3,1.9-36.6
		c-3.2,0.4-6.7,0.7-10.5,1c-3.8,0.3-8.1,0.4-12.8,0.4c-4.8,0-9-0.1-12.8-0.4c-3.8-0.3-7.3-0.6-10.5-1c0.8,12.3,1.3,24.6,1.7,36.9
		c0.4,12.3,0.6,26.3,0.6,42v38.7c0,15.8-0.2,29.8-0.6,42c-0.4,12.2-1,24.3-1.7,36c3.2-0.4,6.7-0.6,10.5-0.6h12.8h12.8
		c3.8,0,7.3,0.2,10.5,0.6c-0.8-11.8-1.3-23.8-1.7-36c-0.4-12.2-0.6-26.2-0.6-42v-16.2c7.2-0.4,14.4-0.7,21.6-0.9
		c7.2-0.2,14.4-0.3,21.6-0.3s14.4,0.1,21.7,0.4c7.2,0.3,14.4,0.5,21.6,0.7v16.2c0,15.8-0.2,29.8-0.6,42c-0.4,12.2-0.9,24.3-1.7,36
		c3.2-0.4,6.7-0.6,10.5-0.6h12.8h12.8c3.8,0,7.3,0.2,10.5,0.6c-0.8-11.8-1.3-23.8-1.7-36c-0.4-12.2-0.6-26.2-0.6-42V256
		c0-15.7,0.2-29.8,0.6-42c0.4-12.2,0.9-24.5,1.7-36.9C683.6,177.5,680.1,177.8,676.3,178.1"/>
	<linearGradient id="C_3_" gradientUnits="userSpaceOnUse" x1="812.5296" y1="376.4162" x2="812.5296" y2="173.3699">
		<stop  offset="0" style="stop-color:#212058"/>
		<stop  offset="8.711652e-02" style="stop-color:#242461"/>
		<stop  offset="0.3231" style="stop-color:#2A2C75"/>
		<stop  offset="0.5632" style="stop-color:#2E3180"/>
		<stop  offset="0.8118" style="stop-color:#2F3384"/>
		<stop  offset="1" style="stop-color:#2F3384"/>
	</linearGradient>
	<path id="C_1_" class="st4" d="M797,179.4c-13.7,4-25.7,10.3-36,18.9c-10.4,8.6-18.6,19.8-24.8,33.6c-6.2,13.8-9.3,30.5-9.3,50.3
		c0,13.5,2.4,26,7.1,37.6c4.8,11.6,11.6,21.6,20.6,30c9,8.4,20,15,33,19.6c13,4.7,27.8,7,44.3,7c23.4,0,42.7-3.9,58.1-11.7
		c0.4-4,1.1-8,2.3-12.1c1.1-4.1,2.5-8.1,4-12.1l-3.7-2.3c-3,3.2-6.6,6.2-10.7,8.8c-4.1,2.7-8.4,4.9-13,6.7c-4.6,1.8-9.2,3.2-14,4.3
		c-4.8,1.1-9.4,1.6-14,1.6c-8.2,0-16.3-1.5-24.3-4.6c-8.1-3-15.3-7.8-21.7-14.4c-6.4-6.6-11.5-15-15.5-25.4c-4-10.4-6-22.8-6-37.5
		c0-15.2,1.9-28.2,5.8-39.2c3.9-10.9,9-19.9,15.2-26.9c6.3-7,13.2-12.3,20.9-15.7c7.7-3.4,15.3-5.1,22.9-5.1c10.2,0,19.2,2,26.8,5.8
		c7.6,3.9,15,10.4,22.2,19.5h4c0.4-4.9,1.1-9.8,2.1-14.7c1-4.8,2.5-9.6,4.4-14.4c-3.2-1.9-7.2-3.7-11.8-5.4
		c-4.7-1.7-9.5-3.2-14.7-4.4c-5.1-1.2-10.4-2.2-15.9-3c-5.5-0.8-10.7-1.1-15.7-1.1C825,173.4,810.7,175.4,797,179.4"/>
</g>
</svg>
